# xmcd
#
# Track frame offsets:
#	182
#	15682
#	39892
#	69460
#	98042
#	132227
#
# Disc length: 2002 seconds
#
# Revision: 2
# Processed by: cddbd v1.5.1PL2 Copyright (c) Steve Scherf et al.
# Submitted via: EasyCDDAExtractor 6.2.0.3
#
DISCID=4307d006
DTITLE=Zhane - Request Line [CD Single)
DYEAR=1997
DGENRE=R&B
TTITLE0=Request Line (Fitch Bros. Radio Mix)
TTITLE1=Request Line (Fitch Bros. In A Low Rider Mix)
TTITLE2=Request Line (Fitch Bros. Floor Filler Mix)
TTITLE3=Request Line (Nitebreed's Got You On Hold Mix)
TTITLE4=Request Line (Nitebreed's Northface Killa Dub)
TTITLE5=Request Line (LP Version)
EXTD=
EXTT0=
EXTT1=
EXTT2=
EXTT3=
EXTT4=
EXTT5=
PLAYORDER=
